<?xml version="1.0" encoding="UTF-8"?>
<!DOCTYPE svg PUBLIC "-//W3C//DTD SVG 1.1//EN" "http://www.w3.org/Graphics/SVG/1.1/DTD/svg11.dtd">
<!-- Creator: CorelDRAW 2019 (64-Bit) -->
<svg xmlns="http://www.w3.org/2000/svg" xml:space="preserve" width="699px" height="240px" version="1.1" style="shape-rendering:geometricPrecision; text-rendering:geometricPrecision; image-rendering:optimizeQuality; fill-rule:evenodd; clip-rule:evenodd"
viewBox="0 0 699 239.91"
 xmlns:xlink="http://www.w3.org/1999/xlink"
 xmlns:xodm="http://www.corel.com/coreldraw/odm/2003">
 <defs>
  <style type="text/css">
   <![CDATA[
    .fil3 {fill:#1EAC4B}
    .fil0 {fill:#268ACB}
    .fil7 {fill:#268ACB}
    .fil2 {fill:#8FC43F}
    .fil4 {fill:#DF3286}
    .fil6 {fill:#E41F29}
    .fil5 {fill:#EF9720}
    .fil1 {fill:white}
   ]]>
  </style>
 </defs>
 <g id="Layer_x0020_1">
  <metadata id="CorelCorpID_0Corel-Layer"/>
  <path class="fil0" d="M10.79 89.13l134.75 -7.46c4.49,-0.25 9.06,3.77 8.17,8.18 -9.66,47.86 -7.95,95.12 2.55,141.89 0.99,4.39 -3.67,8.17 -8.17,8.17l-141.38 0c-4.5,0 -7.68,-5.28 -6.44,-9.6 10.74,-37.41 13.54,-79.45 3.58,-133.21 -0.82,-4.42 2.45,-7.72 6.94,-7.97z"/>
  <path class="fil1" d="M43.58 108.75c3.28,0 5.93,2.65 5.93,5.92 0,3.27 -2.65,5.93 -5.93,5.93 -3.27,0 -5.92,-2.66 -5.92,-5.93 0,-3.27 2.65,-5.92 5.92,-5.92zm61.06 26.2c-0.02,-3.15 2.51,-5.72 5.66,-5.75 3.14,-0.02 5.71,2.51 5.74,5.66l0 0.2 0 0.04 0 0 0 0.21 0.02 0c0,10.88 -4.41,20.74 -11.55,27.88 -7.13,7.13 -16.99,11.55 -27.88,11.55 -10.89,0 -20.74,-4.42 -27.88,-11.55 -7.14,-7.14 -11.55,-17 -11.55,-27.88l0.02 0 0 -0.2c0,-3.15 2.55,-5.7 5.7,-5.7 3.15,0 5.7,2.55 5.7,5.7l0 0.2 0.02 0c0,7.73 3.13,14.72 8.2,19.79 5.06,5.06 12.06,8.2 19.79,8.2 7.73,0 14.73,-3.14 19.79,-8.2 5.07,-5.07 8.2,-12.06 8.2,-19.79l0.02 0 0 -0.16 0 0 0 -0.2zm5.04 -26.2c3.27,0 5.93,2.65 5.93,5.92 0,3.27 -2.66,5.93 -5.93,5.93 -3.27,0 -5.93,-2.66 -5.93,-5.93 0,-3.27 2.66,-5.92 5.93,-5.92z"/>
  <path class="fil2" d="M66.19 80.09l-6.13 -51.49 2.86 -2.96c0.12,0.27 0.26,0.51 0.41,0.72 2.04,-1.02 7.32,-4 10.99,-6.09 1.21,1.28 2.93,2.09 4.84,2.09 2.02,0 3.83,-0.9 5.05,-2.33l12.79 2.77 3.51 2.23c0,0 5.02,42.85 6.33,54.53l-40.34 2.23 -0.31 -1.7zm4.79 -69.59l-4.38 -7.44c0,0 1.89,-0.81 2.96,-0.35 1.07,0.46 2.35,1.12 3.01,0.81 0.67,-0.3 3.07,-2.8 4.09,-3.16 1.02,-0.36 1.33,-0.36 1.33,-0.36 0,0 3.16,0.97 3.93,1.74 0.76,0.76 1.17,1.12 1.94,0.81 0.77,-0.3 2.96,-2.09 3.83,-2.19 0.87,-0.1 1.43,-0.05 1.43,-0.05l-2.37 9.07c-1.01,0.58 -2,1.14 -2.89,1.65 -1.2,-1.21 -2.86,-1.95 -4.7,-1.95 -1.93,0 -3.66,0.82 -4.88,2.14l-3.3 -0.72z"/>
  <path class="fil3" d="M61.18 8.38c-0.59,1.29 -0.25,14.59 2.15,17.98 2.04,-1.02 7.32,-4 10.99,-6.09 1.21,1.28 2.93,2.09 4.84,2.09 2.02,0 3.83,-0.9 5.05,-2.33l12.93 2.8c0.59,-1.29 0.25,-14.59 -2.14,-17.98 -2.07,1.03 -7.47,4.08 -11.14,6.18 -1.2,-1.21 -2.86,-1.95 -4.7,-1.95 -1.93,0 -3.66,0.82 -4.88,2.14l-13.1 -2.84z"/>
  <path class="fil4" d="M93.27 39.65l17.97 4.03 0.6 0.13 0 0 -0.6 -0.13 -8.09 36.08 -23 1.27 8.64 -38.54c0.45,-2.02 2.47,-3.29 4.48,-2.84zm40.81 9.15l16.58 3.72c2.01,0.45 3.29,2.46 2.84,4.47l-4.53 20.23 -23 1.28 6.63 -29.59c0.5,-0.03 1,-0.06 1.48,-0.11z"/>
  <path class="fil5" d="M111.24 43.68l0.6 0.13c-3.05,-2.27 -10.92,-7.47 -9.01,-11.81 2.37,-5.39 8.39,-4.89 11.88,-1.56 3.49,3.33 5.43,9.04 5.65,12.47 0,0 2.24,-0.7 3.92,0.13 1.69,0.83 1.99,0.98 1.99,0.98 0,0 8.44,-10.77 14.13,-8.63 5.69,2.14 7.28,6.62 5.66,8.58 -1.52,1.82 -6.48,4.6 -13.46,4.94l-6.63 29.59 -22.82 1.26 8.09 -36.08zm4.74 -2.21c0,0 -1.87,-7.29 -4.44,-8.55 -2.56,-1.26 -4.14,-0.76 -4.87,0.74 -0.73,1.49 4.19,4.91 9.31,7.81zm24.85 -1.64c0,0 1.84,1.47 1.14,2.6 -0.7,1.13 -7.04,2.43 -8.39,2.47 -1.35,0.05 -2.98,-0.03 -2.98,-0.03 0,0 3.91,-3.59 6.02,-4.79 2.11,-1.19 3.44,-0.82 4.21,-0.25z"/>
  <path class="fil5" d="M6.5 61.34l21.45 -5.17 0.73 -0.18 0 0 -0.73 0.18 6.61 27.39 -26.96 1.49 -4.41 -18.28c-0.58,-2.41 0.91,-4.85 3.31,-5.43zm48.72 -11.76l19.8 -4.77c2.41,-0.58 4.85,0.91 5.43,3.31l7.83 32.46 -26.96 1.5 -7.63 -31.6c0.53,-0.29 1.04,-0.59 1.53,-0.9z"/>
  <path class="fil6" d="M27.95 56.17l0.73 -0.18c-4.49,-0.83 -15.7,-2.25 -15.95,-7.93 -0.3,-7.04 6.44,-9.7 11.95,-7.96 5.52,1.73 10.63,6.84 12.67,10.42 0,0 2.05,-1.94 4.29,-1.94 2.25,0 2.66,0 2.66,0 0,0 3.37,-16.04 10.62,-16.76 7.26,-0.71 11.34,3.27 10.63,6.23 -0.67,2.77 -4.54,8.38 -11.86,12.43l7.63 31.6 -26.76 1.48 -6.61 -27.39zm3.94 -4.89c0,0 -5.88,-6.84 -9.3,-6.84 -3.42,0 -4.85,1.38 -4.85,3.37 0,1.99 7.1,3.06 14.15,3.47zm25.84 -14.91c0,0 2.76,0.61 2.61,2.19 -0.16,1.59 -6.28,6.34 -7.72,7.1 -1.43,0.77 -3.21,1.54 -3.21,1.54 0,0 2.3,-5.93 3.93,-8.33 1.63,-2.4 3.27,-2.71 4.39,-2.5z"/>
  <path class="fil7" d="M235.34 80.77c26.85,0 48.62,21.77 48.62,48.63 0,26.85 -21.77,48.62 -48.62,48.62 -26.86,0 -48.63,-21.77 -48.63,-48.62l0 -75.4c6.38,-6.95 13.99,-11.23 22.83,-11.64 0,27.58 0,55.16 0,82.74 0,20.25 7.91,37.34 23.52,37.34 18.25,0 28.99,-14.79 28.99,-33.04 0,-18.25 -14.8,-33.05 -33.05,-33.05 -3.28,0 -6.46,0.48 -9.45,1.37 0,0 4.15,-10.8 12.08,-16.81 1.22,-0.09 2.46,-0.14 3.71,-0.14zm338.66 -51.33c4.9,0 9.36,1.88 12.7,4.95l-4.73 4.73c-2.13,-1.87 -4.92,-3 -7.97,-3 -6.68,0 -12.09,5.41 -12.09,12.09 0,6.67 5.41,12.09 12.09,12.09 3.05,0 5.84,-1.14 7.97,-3l4.73 4.73c-3.34,3.07 -7.8,4.95 -12.7,4.95 -10.37,0 -18.77,-8.41 -18.77,-18.77 0,-10.37 8.4,-18.77 18.77,-18.77zm61.57 4.48c2.16,-2.35 4.69,-3.91 7.57,-4.36l0 6.15c1.46,-1.75 5.66,-6.12 11.29,-6.12 6.43,0 10.27,3.1 11.67,6.82 0.32,-0.46 5.03,-6.82 11.83,-6.82 9.77,0 13.02,6.44 13.02,15.01l0 0 0 16.67c-2.46,2.67 -5.39,4.32 -8.8,4.48l0 -21.5c0,0 -0.34,-7.26 -6.37,-7.26 -9.17,0 -7.87,7.23 -8.33,8.95l0 15.33c-2.46,2.67 -5.39,4.32 -8.79,4.48l0 -21.5c0,0 -0.35,-7.26 -6.37,-7.26 -6.03,0 -7.93,4.14 -7.93,7.82l0 16.46c-2.46,2.67 -5.39,4.32 -8.79,4.48l0 -31.83zm-24.38 -4.48c10.36,0 18.77,8.4 18.77,18.77 0,10.36 -8.41,18.77 -18.77,18.77 -10.37,0 -18.77,-8.41 -18.77,-18.77 0,-10.37 8.4,-18.77 18.77,-18.77zm0 6.68c6.67,0 12.08,5.41 12.08,12.09 0,6.67 -5.41,12.09 -12.08,12.09 -6.68,0 -12.09,-5.42 -12.09,-12.09 0,-6.68 5.41,-12.09 12.09,-12.09zm-188.7 44.65c26.85,0 48.62,21.77 48.62,48.63 0,26.85 -21.77,48.62 -48.62,48.62 -26.86,0 -48.63,-21.77 -48.63,-48.62l0 -75.4c6.38,-6.95 14,-11.23 22.83,-11.64 0,27.58 0,55.16 0,82.74 0,20.25 7.91,37.34 23.52,37.34 18.25,0 28.99,-14.79 28.99,-33.04 0,-18.25 -14.8,-33.05 -33.05,-33.05 -3.28,0 -6.45,0.48 -9.45,1.37 0,0 4.16,-10.8 12.08,-16.81 1.22,-0.09 2.46,-0.14 3.71,-0.14zm101.75 11.44c6.38,-6.95 13.99,-11.23 22.82,-11.65 0,50.67 0,35.15 0,85.82 -6.38,6.95 -13.99,11.23 -22.82,11.64 0,-50.67 0,-35.14 0,-85.81zm11.41 -49.14c6.32,0 11.44,5.13 11.44,11.44 0,6.32 -5.12,11.45 -11.44,11.45 -6.32,0 -11.44,-5.13 -11.44,-11.45 0,-6.31 5.12,-11.44 11.44,-11.44zm-49.42 -17.06c6.38,-6.95 14,-11.23 22.83,-11.64 0,50.67 0,101.34 0,152.01 -6.38,6.95 -13.99,11.23 -22.83,11.64 0,-50.67 0,-101.34 0,-152.01zm-149.15 66.2c6.39,-6.95 14,-11.23 22.83,-11.65 0,50.67 0,35.15 0,85.82 -6.38,6.95 -13.99,11.23 -22.83,11.64 0,-50.67 0,-35.14 0,-85.81zm11.42 -49.14c6.32,0 11.44,5.13 11.44,11.44 0,6.32 -5.12,11.45 -11.44,11.45 -6.32,0 -11.44,-5.13 -11.44,-11.45 0,-6.31 5.12,-11.44 11.44,-11.44zm-49.42 -17.06c6.38,-6.95 14,-11.23 22.83,-11.64 0,50.67 0,101.34 0,152.01 -6.38,6.95 -13.99,11.23 -22.83,11.64 0,-50.67 0,-101.34 0,-152.01z"/>
  <path class="fil7" d="M186.71 238.73l11.8 0c8.05,0 11.41,-3.58 11.41,-8.77 0,-3.45 -2.09,-6.09 -5.71,-6.9 2.77,-0.85 4.22,-3.28 4.22,-6.01 0,-4.85 -3.45,-8.13 -10.61,-8.13l-11.11 0 0 29.81zm16.4 -8.99c0,2.56 -1.67,3.84 -5.16,3.84l-4.55 0 0 -7.67 4.55 0c3.49,0 5.16,1.32 5.16,3.83zm-1.11 -12.3c0,2.25 -1.58,3.49 -4.6,3.49l-4 0 0 -6.86 4 0c3.02,0 4.6,1.02 4.6,3.37zm13.05 -8.52l0 29.81 6.81 0 0 -29.81 -6.81 0zm12.11 14.9c0,9.37 6.22,15.42 14.95,15.42 5.32,0 9.58,-2.04 12.27,-5.45l0 -11.5 -12.48 0 0 4.9 6 0 0 4.09c-1.1,1.49 -3.28,2.3 -5.7,2.3 -4.52,0 -8.18,-3.37 -8.18,-9.76 0,-6.38 3.58,-9.75 7.71,-9.75 3.19,0 5.41,1.41 6.9,3.96l5.66 -2.77c-2.6,-4.42 -7.03,-6.85 -12.82,-6.85 -8.39,0 -14.31,6.09 -14.31,15.41zm259.41 14.91l11.79 0c8.05,0 11.42,-3.58 11.42,-8.77 0,-3.45 -2.09,-6.09 -5.71,-6.9 2.77,-0.85 4.22,-3.28 4.22,-6.01 0,-4.85 -3.45,-8.13 -10.61,-8.13l-11.11 0 0 29.81zm16.39 -8.99c0,2.56 -1.66,3.84 -5.15,3.84l-4.56 0 0 -7.67 4.56 0c3.49,0 5.15,1.32 5.15,3.83zm-1.1 -12.3c0,2.25 -1.58,3.49 -4.6,3.49l-4.01 0 0 -6.86 4.01 0c3.02,0 4.6,1.02 4.6,3.37zm13.05 -8.52l0 29.81 6.81 0 0 -29.81 -6.81 0zm12.11 14.9c0,9.37 6.22,15.42 14.95,15.42 5.32,0 9.58,-2.04 12.26,-5.45l0 -11.5 -12.47 0 0 4.9 6 0 0 4.09c-1.11,1.49 -3.28,2.3 -5.71,2.3 -4.51,0 -8.17,-3.37 -8.17,-9.76 0,-6.38 3.57,-9.75 7.71,-9.75 3.19,0 5.4,1.41 6.89,3.96l5.67 -2.77c-2.6,-4.42 -7.03,-6.85 -12.82,-6.85 -8.39,0 -14.31,6.09 -14.31,15.41zm-255.38 0c0,9.07 5.41,15.42 13.89,15.42 5.41,0 9.45,-2.56 11.62,-6.05l-3.06 -1.91c-2.26,3.15 -4.9,4.55 -8.44,4.55 -5.79,0 -10.17,-4.21 -10.17,-12.01 0,-7.79 4.38,-12 10.17,-12 3.54,0 6.18,1.4 8.44,4.55l3.06 -1.91c-2.17,-3.5 -6.21,-6.05 -11.62,-6.05 -8.48,0 -13.89,6.34 -13.89,15.41zm30.86 14.91l3.74 0 0 -14.18 15.59 0 0 14.18 3.75 0 0 -29.81 -3.75 0 0 12.31 -15.59 0 0 -12.31 -3.74 0 0 29.81zm55.25 -14.91c0,-8.64 -4.85,-15.41 -13.29,-15.41 -8.47,0 -13.33,6.77 -13.33,15.41 0,8.65 4.86,15.42 13.33,15.42 8.44,0 13.29,-6.77 13.29,-15.42zm-22.78 0c0,-7.36 3.7,-12 9.49,-12 5.75,0 9.46,4.64 9.46,12 0,7.37 -3.71,12.01 -9.46,12.01 -5.79,0 -9.49,-4.64 -9.49,-12.01zm28.55 -14.9l0 29.81 3.75 0 0 -29.81 -3.75 0zm9.52 14.9c0,9.07 5.41,15.42 13.88,15.42 5.41,0 9.45,-2.56 11.63,-6.05l-3.07 -1.91c-2.26,3.15 -4.9,4.55 -8.43,4.55 -5.79,0 -10.18,-4.21 -10.18,-12.01 0,-7.79 4.39,-12 10.18,-12 3.53,0 6.17,1.4 8.43,4.55l3.07 -1.91c-2.18,-3.5 -6.22,-6.05 -11.63,-6.05 -8.47,0 -13.88,6.34 -13.88,15.41zm30.85 14.91l18.95 0 0 -3.32 -15.2 0 0 -10.39 13.33 0 0 -3.33 -13.33 0 0 -9.45 14.82 0 0 -3.32 -18.57 0 0 29.81zm34.43 -2.9c-3.49,0 -6.52,-1.27 -9.2,-4.13l-2.85 2.39c3.19,3.4 7.19,5.15 12.01,5.15 6.38,0 10.18,-3.45 10.18,-8.35 0,-5.28 -3.28,-7.53 -10.65,-9.49 -4.47,-1.2 -6.35,-3.15 -6.35,-5.33 0,-2.51 1.83,-4.25 5.62,-4.25 2.86,0 5.29,1.23 7.5,3.44l2.73 -2.25c-2.65,-2.94 -6.31,-4.6 -10.31,-4.6 -5.88,0 -9.37,3.19 -9.37,7.66 0,3.58 2,6.82 9.16,8.65 5.62,1.45 7.83,2.89 7.83,6.39 0,2.68 -2.43,4.72 -6.3,4.72l0 0zm134.67 2.9l9.71 0c8.99,0 14.14,-5.58 14.14,-14.91 0,-9.28 -5.15,-14.9 -14.14,-14.9l-9.71 0 0 29.81zm3.75 -3.32l0 -23.17 5.66 0c6.73,0 10.61,4.22 10.61,11.58 0,7.41 -3.88,11.59 -10.61,11.59l-5.66 0zm25.66 3.32l18.95 0 0 -3.32 -15.21 0 0 -10.39 13.33 0 0 -3.33 -13.33 0 0 -9.45 14.82 0 0 -3.32 -18.56 0 0 29.81zm33.23 -29.81l-11.49 29.81 4.13 0 2.81 -7.71 13.2 0 2.81 7.71 4.13 0 -11.5 -29.81 -4.09 0zm2.05 3.92l5.41 14.86 -10.82 0 5.41 -14.86zm18.03 25.89l18.53 0 0 -3.32 -14.78 0 0 -26.49 -3.75 0 0 29.81zm33.15 -2.9c-3.49,0 -6.51,-1.27 -9.19,-4.13l-2.86 2.39c3.2,3.4 7.2,5.15 12.01,5.15 6.39,0 10.18,-3.45 10.18,-8.35 0,-5.28 -3.28,-7.53 -10.65,-9.49 -4.47,-1.19 -6.34,-3.15 -6.34,-5.33 0,-2.51 1.83,-4.25 5.62,-4.25 2.85,0 5.28,1.23 7.5,3.44l2.72 -2.25c-2.64,-2.94 -6.3,-4.6 -10.31,-4.6 -5.87,0 -9.36,3.19 -9.36,7.66 0,3.58 2,6.81 9.15,8.65 5.62,1.44 7.84,2.89 7.84,6.39 0,2.68 -2.43,4.72 -6.31,4.72l0 0z"/>
 </g>
</svg>
